<?xml version="1.0" encoding="UTF-8"?>
<svg id="Frame" xmlns="http://www.w3.org/2000/svg" viewBox="0 0 1000 1000">
  <defs>
    <style>
      .cls-1 {
        fill: #ffffff;
      }
    </style>
  </defs>
  <g id="Logo">
    <g>
      <path class="cls-1" d="M559.92,981.43c-21.61,16.93-64.67,22.53-121.25,15.78-46.32-5.54-85.7-17.35-86.09-17.47v.05c-55.43-17.03-106.76-43.44-152.14-77.38,15.53,2.96,31.57,4.44,48.09,4.44,13.42,0,27.17-.98,41.19-2.96l.14-.02c40.93-6.03,71.47-15.84,98.42-24.5,36.37-11.67,65.11-20.91,106.87-16.69,34.08,3.35,58.28,15.91,71.92,37.33,9.89,15.53,10.96,30.85,11.05,32.47v.12l.03.65c1.11,21.91-4.85,37.66-18.24,48.16Z"/>
      <path class="cls-1" d="M910.25,787.2c-70.02,100.43-175.86,173.98-298.98,202.06,7.85-14.35,13.14-33.27,11.93-57.99-.14-4.53-1.55-28.03-16.54-52.95-14.56-24.25-44.98-54.43-107.03-60.53-51.06-5.15-87.03,6.4-125.11,18.62-26.51,8.51-53.92,17.32-91.13,22.81-82.19,11.55-150.01-16.7-201.86-84.02,11.2,2.39,22.83,2.15,34.57-.77,14.7-2.91,80.05-25,256.61-191.57.01-.02.03-.03.04-.04,124.59-107.51,203.52-119.17,231.71-119.18h4.55c23.26-.05,59.64-.1,95.15,29.73-8.99,5.63-19.07,12.96-28.93,22.24-26.25,24.73-56.08,68.3-49.15,135.45.41,4.67,4.41,43.05,28.19,81.03,22.87,36.52,68.42,79.58,156.09,79.57,1.55,0,3.14-.01,4.71-.04,6.17.08,48.34-.29,95.2-24.43Z"/>
      <path class="cls-1" d="M1000,500.89c0,44.45-5.79,87.55-16.65,128.59,0,.01,0,.02-.01.03-11.53,35.57-28.83,64.74-51.81,87.28-50.81,49.83-113.7,49.76-115.86,49.73l-.4-.02h-.65c-55.5,1.06-96.32-18.13-121.32-57.02-19.47-30.27-22.31-61.98-22.33-62.21l-.05-.65c-4.05-38.73,7.42-71.38,34.07-97.08,20.98-20.23,43.96-28.71,44.11-28.76l30.54-10.47-20.61-25.13c-54.8-66.81-119.21-66.7-150.12-66.66h-4.44c-19.05,0-50.91,3.77-94.51,21.76-52.07,21.48-107.95,57.77-166.13,107.9h-.01l-21.2,14.97c-66.8,43.42-132.89,47.24-196.42,11.38-49.53-27.97-79.45-70.45-79.72-70.84l-.4-.55c-21.96-29.85-32.23-64.89-30.53-104.14.92-21.24,5.29-43.81,13.01-67.44.01-.04.02-.08.04-.12,11.97-33.33,27.37-65.02,45.78-94.64.23-.37.46-.74.69-1.11.36-.57.72-1.13,1.08-1.7,22.72-35.54,43.21-58.6,43.51-58.92l-.05-.04C211.39,67.89,347.59,0,499.63,0c276.34,0,500.37,224.26,500.37,500.89Z"/>
      <path class="cls-1" d="M237.86,642.6c-29.04,24.03-55.22,43.83-78.38,59.25-32.35,21.54-47.97,27.05-51.54,28.14l-.09-.02-2.22.57c-10.22,2.66-18.83.94-27.92-5.54-26.37-18.82-50.47-74.14-67.84-155.76-4.02-18.86-7.27-37.26-9.88-53.92,2.99,4.87,6.2,9.66,9.64,14.34,3.31,4.72,36.75,51.12,92.94,83.32,28.99,16.62,66.92,30.98,111.44,30.98,7.75,0,15.71-.44,23.85-1.37Z"/>
    </g>
  </g>
</svg>