<?xml version="1.0" encoding="UTF-8"?>
<svg id="Layer_1" data-name="Layer 1" xmlns="http://www.w3.org/2000/svg" viewBox="0 0 1920 535">
  <defs>
    <style>
      .cls-1 {
        fill: #ffffff;
      }
    </style>
  </defs>
  <g id="Logo">
    <g>
      <path class="cls-1" d="M299.34,524.87c-11.55,9.05-34.57,12.04-64.82,8.44-24.76-2.96-45.82-9.28-46.02-9.34v.03c-29.63-9.1-57.07-23.22-81.33-41.37,8.3,1.58,16.88,2.37,25.71,2.37,7.17,0,14.53-.52,22.02-1.58h.07c21.88-3.23,38.21-8.48,52.62-13.11,19.44-6.24,34.81-11.18,57.13-8.92,18.22,1.79,31.16,8.51,38.45,19.96,5.29,8.3,5.86,16.49,5.91,17.36v.06l.02.35c.59,11.71-2.59,20.13-9.75,25.75h0Z"/>
      <path class="cls-1" d="M486.63,421.04c-37.43,53.69-94.02,93.01-159.84,108.02,4.2-7.67,7.02-17.79,6.38-31-.07-2.42-.83-14.98-8.84-28.31-7.78-12.96-24.05-29.1-57.22-32.36-27.3-2.75-46.53,3.42-66.88,9.95-14.17,4.55-28.83,9.26-48.72,12.19-43.94,6.17-80.2-8.93-107.92-44.92,5.99,1.28,12.2,1.15,18.48-.41,7.86-1.56,42.79-13.37,137.18-102.41,0-.01.02-.02.02-.02,66.61-57.48,108.8-63.71,123.87-63.71h2.43c12.43-.03,31.88-.05,50.87,15.89-4.81,3.01-10.19,6.93-15.47,11.89-14.03,13.22-29.98,36.51-26.28,72.41.22,2.5,2.36,23.01,15.07,43.32,12.23,19.52,36.58,42.54,83.45,42.54.83,0,1.68,0,2.52-.02,3.3.04,25.84-.16,50.89-13.06h-.01Z"/>
      <path class="cls-1" d="M534.61,267.98c0,23.76-3.1,46.8-8.9,68.74,0,0,0,.01,0,.02-6.16,19.02-15.41,34.61-27.7,46.66-27.16,26.64-60.78,26.6-61.94,26.59h-.21s-.35-.01-.35-.01c-29.67.57-51.49-9.69-64.86-30.48-10.41-16.18-11.93-33.13-11.94-33.26l-.03-.35c-2.17-20.71,3.97-38.16,18.21-51.9,11.22-10.82,23.5-15.35,23.58-15.38l16.33-5.6-11.02-13.43c-29.3-35.72-63.73-35.66-80.25-35.64h-2.37c-10.18,0-27.22,2.02-50.53,11.63-27.84,11.48-57.71,30.88-88.81,57.68h0l-11.33,8c-35.71,23.21-71.04,25.25-105.01,6.08-26.48-14.95-42.47-37.66-42.62-37.87l-.21-.29c-11.74-15.96-17.23-34.69-16.32-55.67.49-11.35,2.83-23.42,6.96-36.05,0-.02.01-.04.02-.06,6.4-17.82,14.63-34.76,24.47-50.59.12-.2.25-.4.37-.59.19-.3.38-.6.58-.91,12.15-19,23.1-31.33,23.26-31.5l-.03-.02C113.02,36.49,185.83.2,267.11.2c147.73,0,267.5,119.89,267.5,267.78Z"/>
      <path class="cls-1" d="M127.17,343.73c-15.52,12.85-29.52,23.43-41.9,31.68-17.29,11.52-25.64,14.46-27.55,15.04h-.05s-1.19.29-1.19.29c-5.46,1.42-10.07.5-14.93-2.96-14.1-10.06-26.98-39.64-36.27-83.27-2.15-10.08-3.89-19.92-5.28-28.83,1.6,2.6,3.31,5.16,5.15,7.67,1.77,2.52,19.65,27.33,49.69,44.54,15.5,8.89,35.78,16.56,59.58,16.56,4.14,0,8.4-.24,12.75-.73h0Z"/>
    </g>
  </g>
  <g>
    <path class="cls-1" d="M752.4,360.42h-43.39l-48.38-185.45h37.24l23.81,114.42,9.21,46.84,11.52-46.84,33.79-114.42h41.08l33.4,114.42,11.9,46.84,8.83-46.84,23.81-114.42h37.24l-48.38,185.45h-43.39l-31.87-108.66-11.9-49.53-12.67,49.53-31.87,108.66Z"/>
    <path class="cls-1" d="M1116.39,360.42h-21.5c-6.4,0-12.1-1.15-17.09-3.46-4.99-2.3-8.9-6.01-11.71-11.13-2.82-5.12-4.22-12.03-4.22-20.73v-77.17l-1.15-4.99c0-11.77-2.88-21.69-8.64-29.76s-16.45-12.09-32.06-12.09c-13.31,0-24.38,3.4-33.21,10.17-8.83,6.79-15.68,15.3-20.54,25.53l-23.04-23.42c4.09-6.4,9.79-12.86,17.09-19.39,7.29-6.53,16.32-11.96,27.07-16.32,10.75-4.35,22.91-6.53,36.48-6.53,22.52,0,39.86,6.28,52.03,18.81,12.16,12.54,18.24,30.08,18.24,52.6v76.02c0,4.1.89,6.98,2.69,8.64,1.79,1.67,4.48,2.5,8.06,2.5h11.52v30.72ZM996.98,364.26c-15.36,0-27.33-4.09-35.9-12.29-8.58-8.19-12.86-18.43-12.86-30.72s4.22-22.52,12.67-30.72c8.45-8.19,19.32-15.36,32.64-21.5l73.34-33.02,4.61,22.65-64.12,30.33c-8.71,4.1-15.11,8.2-19.2,12.29s-6.14,9.09-6.14,14.97c0,6.4,2.17,11.39,6.53,14.97,4.35,3.59,10.88,5.38,19.58,5.38,7.93,0,15.17-1.21,21.69-3.65,6.53-2.43,12.15-5.82,16.89-10.17,4.73-4.35,8.45-9.34,11.13-14.97,2.69-5.63,4.03-11.9,4.03-18.81l1.15,18.05c-1.54,8.45-4.87,17.09-9.98,25.92-5.12,8.83-12.29,16.26-21.5,22.27-9.22,6.01-20.73,9.02-34.56,9.02Z"/>
    <path class="cls-1" d="M1233.49,360.42h-42.24l-67.19-185.45h36.48l36.86,110.2,15.74,50.68,15.74-50.68,36.48-110.2h35.71l-67.58,185.45Z"/>
    <path class="cls-1" d="M1398.6,364.26c-17.41,0-32.83-3.9-46.27-11.71-13.44-7.81-23.94-19.01-31.48-33.6-7.55-14.59-11.33-31.74-11.33-51.45s3.71-36.79,11.14-51.26c7.42-14.46,17.72-25.59,30.91-33.4,13.18-7.81,28.22-11.71,45.11-11.71s32.44,3.59,45.11,10.75c12.67,7.17,22.4,17.41,29.18,30.72,6.78,13.31,10.18,29.18,10.18,47.61,0,2.82-.13,5.57-.38,8.26-.26,2.69-.52,4.93-.77,6.72h-145.14v-24.19h124.79l-8.06,11.52c0-20.99-4.87-36.86-14.59-47.61-9.73-10.75-23.3-16.13-40.7-16.13s-29.82,5.57-39.55,16.7c-9.73,11.13-14.59,27.84-14.59,50.11v4.22c0,14.08,2.24,26.11,6.72,36.09,4.48,9.98,11,17.6,19.58,22.85,8.57,5.25,18.62,7.87,30.14,7.87,12.54,0,22.78-1.92,30.72-5.76,7.93-3.84,14.07-8.57,18.43-14.21,4.35-5.63,7.68-11.13,9.98-16.51l20.73,22.65c-6.91,11.27-16.83,20.99-29.76,29.18-12.93,8.2-29.63,12.29-50.11,12.29Z"/>
    <path class="cls-1" d="M1625.13,201.08h-124.02v-26.11h124.02v26.11ZM1582.51,364.64c-10.24,0-19.26-2.11-27.07-6.33-7.81-4.22-13.89-10.18-18.24-17.85-4.36-7.68-6.53-16.89-6.53-27.65v-161.65l33.79-24.96v176.24c0,12.04,2.43,20.03,7.3,24,4.86,3.97,10.88,5.95,18.05,5.95,8.19,0,15.1-2.75,20.73-8.26,5.63-5.5,9.73-11.2,12.29-17.09l11.14,33.02c-4.1,6.4-10.43,12.09-19.01,17.09-8.58,4.99-19.39,7.49-32.44,7.49Z"/>
    <path class="cls-1" d="M1700.38,144.25h-33.4v-41.08h33.4v41.08ZM1700.38,360.42h-33.4v-185.45h33.4v185.45Z"/>
    <path class="cls-1" d="M1784.08,431.83h-33.4V174.97h33.4v256.87ZM1844.36,364.26c-14.59,0-26.24-3.33-34.94-9.98-8.71-6.65-15.3-15.1-19.77-25.34-4.48-10.24-7.24-21.12-8.26-32.64l2.69-15.74c0,10.24,1.54,19.52,4.61,27.84,3.07,8.32,8.19,14.97,15.36,19.96,7.16,4.99,16.64,7.49,28.41,7.49,14.84,0,27.51-5.57,38.01-16.7,10.49-11.14,15.74-28.47,15.74-52.03s-5.25-40.89-15.74-52.03c-10.5-11.13-23.17-16.7-38.01-16.7-11.78,0-21.25,2.5-28.41,7.49-7.17,4.99-12.29,11.65-15.36,19.97-3.07,8.32-4.61,17.6-4.61,27.84l-2.69-15.36c1.02-11.52,3.77-22.46,8.26-32.83,4.48-10.37,11.07-18.81,19.77-25.34,8.7-6.53,20.22-9.79,34.56-9.79,15.87,0,29.37,3.97,40.51,11.9,11.13,7.94,19.83,19.14,26.11,33.6,6.27,14.46,9.41,31.55,9.41,51.26s-3.14,36.48-9.41,51.07c-6.28,14.59-15.04,25.92-26.3,33.98-11.27,8.06-24.57,12.1-39.93,12.1Z"/>
  </g>
</svg>